HIERARCHY
ROOT Hips
{
	OFFSET 0.00000 0.00000 0.00000
	CHANNELS 6 Xposition Yposition Zposition Zrotation Yrotation Xrotation 
	JOINT LHipJoint
	{
		OFFSET 0 0 0
		CHANNELS 3 Zrotation Yrotation Xrotation
		JOINT LeftUpLeg
		{
			OFFSET 1.29432 -1.88279 0.59910
			CHANNELS 3 Zrotation Yrotation Xrotation
			JOINT LeftLeg
			{
				OFFSET 2.63039 -7.22694 0.00000
				CHANNELS 3 Zrotation Yrotation Xrotation
				JOINT LeftFoot
				{
					OFFSET 2.70674 -7.43672 0.00000
					CHANNELS 3 Zrotation Yrotation Xrotation
					JOINT LeftToeBase
					{
						OFFSET 0.15066 -0.41394 2.09027
						CHANNELS 3 Zrotation Yrotation Xrotation
						End Site
						{
							OFFSET 0.00000 -0.00000 1.07518
						}
					}
				}
			}
		}
	}
	JOINT RHipJoint
	{
		OFFSET 0 0 0
		CHANNELS 3 Zrotation Yrotation Xrotation
		JOINT RightUpLeg
		{
			OFFSET -1.37068 -1.88279 0.59910
			CHANNELS 3 Zrotation Yrotation Xrotation
			JOINT RightLeg
			{
				OFFSET -2.57023 -7.06166 0.00000
				CHANNELS 3 Zrotation Yrotation Xrotation
				JOINT RightFoot
				{
					OFFSET -2.76461 -7.59570 0.00000
					CHANNELS 3 Zrotation Yrotation Xrotation
					JOINT RightToeBase
					{
						OFFSET -0.24175 -0.64785 2.19719
						CHANNELS 3 Zrotation Yrotation Xrotation
						End Site
						{
							OFFSET -0.00000 -0.00000 1.14803
						}
					}
				}
			}
		}
	}
	JOINT LowerBack
	{
		OFFSET 0 0 0
		CHANNELS 3 Zrotation Yrotation Xrotation
		JOINT Spine
		{
			OFFSET -0.03138 2.03983 -0.23106
			CHANNELS 3 Zrotation Yrotation Xrotation
			JOINT Spine1
			{
				OFFSET -0.00325 2.06238 -0.06878
				CHANNELS 3 Zrotation Yrotation Xrotation
				JOINT Neck
				{
					OFFSET 0 0 0
					CHANNELS 3 Zrotation Yrotation Xrotation
					JOINT Neck1
					{
						OFFSET -0.00002 1.75318 0.18090
						CHANNELS 3 Zrotation Yrotation Xrotation
						JOINT Head
						{
							OFFSET 0.08806 1.75856 -0.25387
							CHANNELS 3 Zrotation Yrotation Xrotation
							End Site
							{
								OFFSET 0.02554 1.78597 -0.10684
							}
						}
					}
				}
				JOINT LeftShoulder
				{
					OFFSET 0 0 0
					CHANNELS 3 Zrotation Yrotation Xrotation
					JOINT LeftArm
					{
						OFFSET 3.09657 1.33597 -0.04414
						CHANNELS 3 Zrotation Yrotation Xrotation
						JOINT LeftForeArm
						{
							OFFSET 5.34298 -0.00000 -0.00000
							CHANNELS 3 Zrotation Yrotation Xrotation
							JOINT LeftHand
							{
								OFFSET 3.67262 -0.00000 -0.00000
								CHANNELS 3 Zrotation Yrotation Xrotation
								JOINT LeftFingerBase
								{
									OFFSET 0 0 0
									CHANNELS 3 Zrotation Yrotation Xrotation
									JOINT LeftHandIndex1
									{
										OFFSET 0.59930 -0.00000 -0.00000
										CHANNELS 3 Zrotation Yrotation Xrotation
										End Site
										{
											OFFSET 0.48317 -0.00000 -0.00000
										}
									}
								}
								JOINT LThumb
								{
									OFFSET 0 0 0
									CHANNELS 3 Zrotation Yrotation Xrotation
									End Site
									{
										OFFSET 0.49055 -0.00000 0.49055
									}
								}
							}
						}
					}
				}
				JOINT RightShoulder
				{
					OFFSET 0 0 0
					CHANNELS 3 Zrotation Yrotation Xrotation
					JOINT RightArm
					{
						OFFSET -3.16460 1.32273 -0.23382
						CHANNELS 3 Zrotation Yrotation Xrotation
						JOINT RightForeArm
						{
							OFFSET -5.54967 -0.01834 0.03348
							CHANNELS 3 Zrotation Yrotation Xrotation
							JOINT RightHand
							{
								OFFSET -3.69401 -0.00000 0.00000
								CHANNELS 3 Zrotation Yrotation Xrotation
								JOINT RightFingerBase
								{
									OFFSET 0 0 0
									CHANNELS 3 Zrotation Yrotation Xrotation
									JOINT RightHandIndex1
									{
										OFFSET -0.63811 -0.00000 0.00000
										CHANNELS 3 Zrotation Yrotation Xrotation
										End Site
										{
											OFFSET -0.51446 -0.00000 0.00000
										}
									}
								}
								JOINT RThumb
								{
									OFFSET 0 0 0
									CHANNELS 3 Zrotation Yrotation Xrotation
									End Site
									{
										OFFSET -0.52232 -0.00000 0.52232
									}
								}
							}
						}
					}
				}
			}
		}
	}
}
MOTION
Frames: 10
Frame Time: 0.08
0.00 0.00 0.00 0 0 0 0 0 0 -21 0 0 0 0 0 0 0 0 0 0 0 0 0 0 21 0 0 0 0 0 0 0 0 0 0 0 0 0 0 0 0 0 0 0 0 0 0 -16 0 0 21 0 0 11 0 0 0 -8 0 0 0 0 0 0 0 0 0 0 0 0 0 0 0 0 0 0 0 0 8 0 0 0 0 0 0 0 0 0 0 0 0 0 0 0 0 0
0.00 0.00 0.00 -177.4660 10.6212 -172.7140 0.0000 0.0000 0.0000 -5.8215 -12.0458 -18.4523 0.1746 2.6920 7.4223 -0.5061 12.5160 -3.7277 0.4013 -4.0672 -11.2657 0.0000 0.0000 0.0000 23.6229 7.7453 2.3444 -1.5185 -7.7816 22.0527 -0.7467 0.1745 -16.2741 -0.4914 4.4948 -12.4731 0.9424 0.8676 1.4888 0.1542 1.1960 1.5415 -0.3793 0.6196 0.7594 -7.9900 -11.5138 -10.4512 12.1177 -16.4906 23.4196 3.4863 -6.5673 11.0101 -0.0000 -0.0000 0.0000 -86.0655 6.6619 -29.1206 6.2651 -10.7035 -0.5875 -0.0000 -0.0000 60.0424 7.8332 26.8143 3.5512 -7.1250 0.0000 -0.0000 -23.7585 55.3860 -6.3169 -0.0000 -0.0000 0.0000 81.5905 4.8922 20.9232 -25.2353 36.4435 -8.4293 0.0000 0.0000 9.3218 -23.0359 22.4817 -9.2353 7.1250 -0.0000 -0.0000 3.6824 -5.8087 3.2978
0.00 0.00 0.00 -178.8440 15.6095 -174.1360 0.0000 0.0000 0.0000 -9.9007 -9.2218 -21.2966 1.7565 8.3393 23.7496 0.0465 0.6596 -4.3723 0.7317 -5.4652 -15.2404 0.0000 0.0000 0.0000 20.4356 10.7636 5.0618 -3.9002 -12.0264 35.8253 -0.0987 -2.1780 -7.1553 -0.4516 4.3112 -11.9539 -2.4110 1.4092 2.7367 -1.3363 1.9440 2.3691 -0.0565 0.9945 0.8645 -9.8266 -13.0489 -8.9797 14.0988 -18.9944 25.7326 4.1985 -7.4940 12.3875 -0.0000 -0.0000 0.0000 -83.7430 5.7322 -31.8064 5.9803 -10.2292 -0.5357 -0.0000 -0.0000 63.9739 7.2563 29.3318 3.5691 -7.1250 0.0000 -0.0000 -26.1188 57.5360 -8.3990 -0.0000 -0.0000 0.0000 80.9992 7.4145 14.6666 -28.8894 39.9222 -10.6897 0.0000 0.0000 4.0080 -26.2718 23.3596 -11.0739 7.1250 -0.0000 -0.0000 1.7730 -4.2723 1.6368
0.00 0.00 0.00 -181.8670 19.2130 -174.6020 0.0000 0.0000 0.0000 -14.9671 -5.2476 -18.5181 1.7420 8.3066 23.6492 0.1737 -0.1468 -7.8192 0.5543 -4.7694 -13.2519 0.0000 0.0000 0.0000 15.5375 11.4186 -4.7349 -7.6776 -15.8769 51.3928 0.0731 -5.0007 -3.3529 -0.0711 1.7202 -4.7331 -5.9354 2.6286 3.0324 -3.3356 3.7052 2.9494 -0.1901 1.9031 1.2053 -6.8418 -14.2333 -12.4516 14.1224 -21.4950 27.1874 3.0999 -7.9619 13.7299 -0.0000 0.0000 0.0000 -80.8390 2.0272 -10.1103 7.6357 -12.9606 -0.8686 -0.0000 -0.0000 43.2577 9.0656 29.3317 4.4693 -7.1250 0.0000 -0.0000 -24.3088 57.9218 -7.9974 -0.0000 0.0000 0.0000 82.1458 10.9986 9.4147 -27.3990 38.5570 -9.7468 0.0000 0.0000 1.8777 -25.5832 22.4912 -10.3784 7.1250 -0.0000 -0.0000 2.0921 -5.3368 1.8897
0.00 0.00 0.00 -184.4140 26.0259 -173.4730 0.0000 0.0000 0.0000 -21.8142 0.0417 -12.4388 1.8872 8.6270 24.6352 0.4641 2.2972 -13.9110 1.2823 -7.1759 -20.2374 0.0000 0.0000 0.0000 12.7507 9.0875 -30.0038 -5.1131 -13.5101 41.3092 -0.5886 -1.6616 -15.1878 -0.3484 3.7924 -10.4933 -6.4887 0.5972 4.3920 -1.8374 0.6181 1.4991 1.7103 0.3569 -0.9584 -11.0444 -12.2041 -8.4297 13.7313 -17.6241 27.9533 4.6034 -6.9775 13.0639 -0.0000 0.0000 0.0000 -79.3455 -1.4182 20.2623 21.8724 -32.8325 -6.5165 -0.0000 -0.0000 9.7358 13.6979 32.2495 7.4102 -7.1250 0.0000 -0.0000 -21.8711 61.6487 -9.1021 -0.0000 0.0000 0.0000 74.0730 24.1280 7.5105 -21.7945 32.7441 -6.4744 0.0000 -0.0000 -6.0964 -23.1676 19.0593 -7.9550 7.1250 -0.0000 -0.0000 3.2759 -9.4112 2.7007
0.00 0.00 0.00 -185.2240 26.9417 -172.8990 0.0000 0.0000 0.0000 -23.4011 2.3165 -8.5578 1.3154 7.2643 20.5008 0.3063 3.1632 -12.1063 1.7531 -8.3316 -23.7259 0.0000 0.0000 0.0000 11.4018 14.0831 -29.6859 -1.9083 -8.6724 24.7758 0.1732 -11.8757 -14.2596 -0.0053 0.4710 -1.2941 -5.7385 0.1148 3.8932 -1.2179 0.0156 1.5019 1.9623 0.0323 -0.6333 -10.6691 -12.1788 -7.6190 13.1182 -17.4712 27.0989 4.3405 -7.0508 12.3979 0.0000 0.0000 0.0000 -77.5108 -3.1171 24.7742 27.8219 -38.9518 -10.0115 -0.0000 -0.0000 6.5495 14.9024 31.5995 7.9383 -7.1250 0.0000 -0.0000 -20.0244 61.3444 -8.1526 0.0000 0.0000 0.0000 72.2440 27.5121 6.8106 -21.1293 31.9790 -6.1183 0.0000 -0.0000 -9.4696 -21.9370 18.7512 -7.3769 7.1250 -0.0000 -0.0000 4.0506 -9.9184 3.3008
0.00 0.00 0.00 -185.9570 29.4650 -176.9680 0.0000 0.0000 0.0000 -22.0389 7.4064 -9.6194 4.1092 12.3043 36.8171 0.2252 -3.3601 -8.4365 1.3749 -7.4204 -20.9670 0.0000 0.0000 0.0000 15.1577 10.0054 -28.5771 -2.7634 -10.3018 29.9596 0.5013 -13.1878 -9.6039 -0.4919 -4.4968 12.4788 -3.2174 0.2598 5.8640 -0.3613 0.2587 2.2539 1.4161 0.1596 -0.9760 -11.6747 -12.4682 -6.4338 12.0867 -17.4314 29.2580 4.2456 -7.1348 13.0371 0.0000 -0.0000 0.0000 -76.8167 -4.5756 27.0440 33.6478 -43.8221 -13.8686 -0.0000 -0.0000 5.5764 11.2505 30.9490 5.8411 -7.1250 0.0000 -0.0000 -23.3487 59.8751 -8.7637 0.0000 -0.0000 0.0000 72.6730 27.4606 8.6729 -21.7303 32.6709 -6.4396 0.0000 -0.0000 -23.9347 -17.7146 16.2539 -5.1089 7.1250 -0.0000 -0.0000 6.7004 -13.0482 5.0501
0.00 0.00 0.00 -183.3900 32.0507 -177.1710 0.0000 0.0000 0.0000 -18.0144 7.0962 -15.9938 7.9850 16.1082 52.5087 -0.0097 -1.7570 0.4037 0.6457 -5.1404 -14.3094 0.0000 0.0000 0.0000 18.2963 7.3079 -26.6558 -3.3238 -11.2016 32.9627 -0.1198 -6.4936 -11.8365 -0.3096 -3.5771 9.8897 -0.9578 -0.1207 6.2557 0.7911 -0.0851 2.7910 1.3554 -0.0024 -0.6303 -10.2077 -12.2947 -5.9640 11.4150 -17.2138 29.9911 3.8492 -6.9120 12.9711 0.0000 -0.0000 0.0000 -79.6300 -3.3029 24.5229 35.3059 -45.0293 -15.0294 -0.0000 -0.0000 3.0803 16.3679 29.6212 8.2599 -7.1250 0.0000 -0.0000 -16.9422 59.8247 -6.2385 0.0000 -0.0000 0.0000 76.8253 23.5331 9.4692 -28.9060 39.9370 -10.7003 0.0000 -0.0000 -31.5618 -8.8115 18.4711 -2.8117 7.1250 -0.0000 -0.0000 12.5864 -11.6391 10.0397
0.00 0.00 0.00 -183.7130 53.9647 -179.0330 0.0000 0.0000 0.0000 -15.9175 -2.7504 -23.5371 5.1049 13.5010 41.2740 0.2621 6.5385 -14.2256 0.0569 -1.5391 -4.2336 0.0000 0.0000 0.0000 17.0747 13.4452 -16.2482 -3.1491 -10.9326 32.0530 -0.4854 5.5424 -12.4354 -0.2279 -3.0725 8.4808 -1.2786 -0.6998 5.7565 0.2021 -0.8900 3.0975 0.9745 -0.4173 -0.0174 -6.8131 -8.5459 -9.0304 7.1429 -11.4641 33.1992 2.4823 -4.3811 13.5611 -0.0000 0.0000 0.0000 -83.8992 -0.7261 30.2341 37.2609 -46.3607 -16.4286 -0.0000 0.0000 -3.3885 12.3415 32.9019 6.7778 -7.1250 0.0000 -0.0000 -23.9062 61.9044 -10.1465 -0.0000 0.0000 0.0000 83.0047 14.5224 31.9825 -46.2797 51.3802 -23.2343 0.0000 -0.0000 -26.1982 -4.5583 12.0048 -0.9500 7.1250 -0.0000 -0.0000 15.6950 -18.1789 10.4133
0.00 0.00 0.00 -180.5460 64.5702 -177.3620 0.0000 0.0000 0.0000 -9.2139 -11.0897 -19.4443 2.2813 9.4290 27.1466 -0.0765 8.2743 -10.1107 0.0074 0.5565 1.5291 0.0000 0.0000 0.0000 17.2385 17.3270 -11.3835 -2.6250 -10.0618 29.1770 -0.2266 10.3825 -10.4789 -0.3192 -3.6315 10.0422 0.0193 -0.8270 5.7766 0.2636 -0.9999 3.2573 0.3151 -0.4600 0.1157 -5.7766 -6.4307 -9.7927 4.8914 -8.0773 33.0150 1.8931 -3.1323 13.1370 0.0000 -0.0000 0.0000 -85.7300 -6.2334 34.5593 38.6370 -47.2413 -17.4318 -0.0000 0.0000 -2.4932 8.6497 32.1642 4.6298 -7.1250 0.0000 -0.0000 -27.0780 60.3526 -10.5940 0.0000 -0.0000 0.0000 82.0684 12.4128 44.3151 -55.0382 54.8358 -30.2472 0.0000 -0.0000 -22.0381 -7.1606 6.5454 -0.8205 7.1250 -0.0000 -0.0000 14.3492 -23.4128 7.7019
